<svg width="3522" height="1188" xmlns="http://www.w3.org/2000/svg" xmlns:xlink="http://www.w3.org/1999/xlink" xml:space="preserve" overflow="hidden"><g transform="translate(-397 -644)"><path d="M3094.06 644.5 3808.6 644.5 3808.6 644.5C3808.6 705.178 3857.8 754.367 3918.5 754.367L3918.5 792.429C3891.1 792.429 3868.89 814.633 3868.89 842.023 3868.89 869.413 3891.1 891.617 3918.5 891.617L3918.5 924.09C3891.1 924.09 3868.89 946.294 3868.89 973.684 3868.89 1001.07 3891.1 1023.28 3918.5 1023.28L3918.5 1055.75C3891.1 1055.75 3868.89 1077.96 3868.89 1105.35 3868.89 1132.74 3891.1 1154.94 3918.5 1154.94L3918.5 1187.41C3891.1 1187.41 3868.89 1209.62 3868.89 1237.01 3868.89 1264.4 3891.1 1286.6 3918.5 1286.6L3918.5 1319.07C3891.1 1319.07 3868.89 1341.28 3868.89 1368.67 3868.89 1396.06 3891.1 1418.26 3918.5 1418.26L3918.5 1450.74C3891.1 1450.74 3868.89 1472.94 3868.89 1500.33 3868.89 1527.72 3891.1 1549.92 3918.5 1549.92L3918.5 1582.4C3891.1 1582.4 3868.89 1604.6 3868.89 1631.99 3868.89 1659.38 3891.1 1681.59 3918.5 1681.59L3918.5 1721.63C3872.98 1721.63 3833.92 1749.3 3817.24 1788.74L3808.6 1831.5 3094.06 1831.5 3087.39 1793.72C3074.45 1758.39 3043.87 1731.55 3006.31 1723.87L2990.96 1722.32 2990.96 1679.92 3002.02 1677.69C3019.82 1670.16 3032.31 1652.53 3032.31 1631.99 3032.31 1611.45 3019.82 1593.82 3002.02 1586.29L2990.96 1584.06 2990.96 1548.26 3002.02 1546.03C3019.82 1538.5 3032.31 1520.87 3032.31 1500.33 3032.31 1479.79 3019.82 1462.16 3002.02 1454.63L2990.96 1452.4 2990.96 1416.6 3002.02 1414.37C3019.82 1406.84 3032.31 1389.21 3032.31 1368.67 3032.31 1348.13 3019.82 1330.5 3002.02 1322.97L2990.96 1320.74 2990.96 1284.94 3002.02 1282.7C3019.82 1275.18 3032.31 1257.55 3032.31 1237.01 3032.31 1216.46 3019.82 1198.84 3002.02 1191.31L2990.96 1189.08 2990.96 1153.28 3002.02 1151.04C3019.82 1143.51 3032.31 1125.89 3032.31 1105.35 3032.31 1084.8 3019.82 1067.18 3002.02 1059.65L2990.96 1057.42 2990.96 1021.61 3002.02 1019.38C3019.82 1011.85 3032.31 994.227 3032.31 973.684 3032.31 953.142 3019.82 935.516 3002.02 927.988L2990.96 925.755 2990.96 889.952 3002.02 887.72C3019.82 880.191 3032.31 862.566 3032.31 842.023 3032.31 821.48 3019.82 803.855 3002.02 796.326L2990.96 794.094 2990.96 753.682 3006.31 752.135C3056.39 741.89 3094.06 697.593 3094.06 644.5ZM507.402 644.5 2874.26 644.5 2874.26 644.5C2874.26 697.593 2911.93 741.89 2962.01 752.135L2974.45 753.389 2974.45 794.094 2963.39 796.326C2945.59 803.855 2933.09 821.48 2933.09 842.023 2933.09 862.566 2945.59 880.191 2963.39 887.72L2974.45 889.952 2974.45 925.755 2963.39 927.988C2945.59 935.516 2933.09 953.142 2933.09 973.684 2933.09 994.227 2945.59 1011.85 2963.39 1019.38L2974.45 1021.61 2974.45 1057.42 2963.39 1059.65C2945.59 1067.18 2933.09 1084.8 2933.09 1105.35 2933.09 1125.89 2945.59 1143.51 2963.39 1151.04L2974.45 1153.28 2974.45 1189.08 2963.39 1191.31C2945.59 1198.84 2933.09 1216.46 2933.09 1237.01 2933.09 1257.55 2945.59 1275.18 2963.39 1282.7L2974.45 1284.94 2974.45 1320.74 2963.39 1322.97C2945.59 1330.5 2933.09 1348.13 2933.09 1368.67 2933.09 1389.21 2945.59 1406.84 2963.39 1414.37L2974.45 1416.6 2974.45 1452.4 2963.39 1454.63C2945.59 1462.16 2933.09 1479.79 2933.09 1500.33 2933.09 1520.87 2945.59 1538.5 2963.39 1546.03L2974.45 1548.26 2974.45 1584.06 2963.39 1586.29C2945.59 1593.82 2933.09 1611.45 2933.09 1631.99 2933.09 1652.53 2945.59 1670.16 2963.39 1677.69L2974.45 1679.92 2974.45 1722.61 2962.01 1723.87C2924.45 1731.55 2893.87 1758.39 2880.93 1793.72L2874.26 1831.5 507.402 1831.5 498.766 1788.74C482.082 1749.3 443.024 1721.63 397.501 1721.63L397.5 1721.63 397.5 1681.44 416.071 1677.69C433.877 1670.16 446.371 1652.53 446.371 1631.99 446.371 1611.45 433.877 1593.82 416.071 1586.29L397.5 1582.55 397.5 1549.78 416.071 1546.03C433.877 1538.5 446.371 1520.87 446.371 1500.33 446.371 1479.79 433.877 1462.16 416.071 1454.63L397.5 1450.89 397.5 1418.11 416.071 1414.37C433.877 1406.84 446.371 1389.21 446.371 1368.67 446.371 1348.13 433.877 1330.5 416.071 1322.97L397.5 1319.22 397.5 1286.45 416.071 1282.7C433.877 1275.18 446.371 1257.55 446.371 1237.01 446.371 1216.46 433.877 1198.84 416.071 1191.31L397.5 1187.56 397.5 1154.79 416.072 1151.04C433.877 1143.51 446.371 1125.89 446.371 1105.35 446.371 1084.8 433.877 1067.18 416.072 1059.65L397.5 1055.9 397.5 1023.13 416.072 1019.38C433.877 1011.85 446.371 994.227 446.371 973.684 446.371 953.142 433.877 935.516 416.072 927.988L397.5 924.239 397.5 891.468 416.071 887.72C433.877 880.191 446.371 862.566 446.371 842.023 446.371 821.48 433.877 803.855 416.071 796.326L397.5 792.578 397.5 754.367 397.501 754.367C458.198 754.367 507.402 705.178 507.402 644.5Z" stroke="#000000" stroke-width="1.14583" stroke-miterlimit="8" fill="#F5F3E5" fill-rule="evenodd"/><rect x="566.5" y="817.5" width="2241" height="841" stroke="#042433" stroke-width="6.875" stroke-miterlimit="8" fill="#FFFFFC"/><text font-family="Amasis MT Pro Medium,Amasis MT Pro Medium_MSFontService,sans-serif" font-weight="500" font-size="147" transform="matrix(1 0 0 1 947.685 1291)">Cover Image Required</text></g></svg>